<svg width="25" height="25" viewBox="0 0 25 25" fill="none" xmlns="http://www.w3.org/2000/svg">
<path d="M23.3233 8.61047C22.9504 8.61047 22.6476 8.89701 22.6476 9.24997V13.1156C22.6476 18.412 18.0949 22.7211 12.499 22.7211C6.90302 22.7211 2.35027 18.412 2.35027 13.1156L2.35132 9.24997C2.35132 8.89701 2.04858 8.61047 1.67566 8.61047C1.30274 8.61047 1 8.89701 1 9.24997V13.1156C1 19.1171 6.15908 24.0001 12.5 24.0001C18.8409 24.0001 24 19.1171 24 13.1156L23.999 9.24997C23.999 8.89701 23.6973 8.61047 23.3233 8.61047Z" fill="#061A40" stroke="#061A40" stroke-width="1.77574"/>
<path d="M17.6753 8.47669C17.5045 8.47669 17.3338 8.53817 17.2018 8.66012L13.1749 12.4019L13.1749 1.63951C13.1749 1.28655 12.8722 1.00001 12.4993 1.00001C12.1263 1.00001 11.8236 1.28655 11.8236 1.63951L11.8236 12.4019L7.79675 8.66012C7.53067 8.41225 7.10224 8.41621 6.84139 8.66805C6.5795 8.91989 6.58369 9.32539 6.84977 9.57228L12.0215 14.3781L12.0256 14.382C12.0361 14.3919 12.0476 14.3979 12.0581 14.4068C12.0801 14.4247 12.1021 14.4435 12.1262 14.4584C12.1451 14.4703 12.165 14.4792 12.1849 14.4881C12.2037 14.498 12.2215 14.508 12.2414 14.5159C12.2655 14.5248 12.2907 14.5308 12.3158 14.5377C12.3326 14.5427 12.3493 14.5486 12.3671 14.5516C12.4541 14.5674 12.5431 14.5674 12.6301 14.5516C12.6489 14.5476 12.6667 14.5417 12.6856 14.5367C12.7086 14.5308 12.7327 14.5248 12.7558 14.5159C12.7767 14.508 12.7956 14.497 12.8155 14.4861C12.8343 14.4762 12.8532 14.4683 12.871 14.4574C12.8951 14.4425 12.9161 14.4247 12.937 14.4068C12.9485 14.3979 12.9611 14.391 12.9716 14.381L18.1486 9.57246C18.4147 9.32459 18.4189 8.92007 18.157 8.66823C18.025 8.54033 17.8502 8.47669 17.6753 8.47669Z" fill="#061A40" stroke="#061A40" stroke-width="1.77574"/>
</svg>
