<svg width="23" height="23" viewBox="0 0 23 23" fill="none" xmlns="http://www.w3.org/2000/svg">
<path fill-rule="evenodd" clip-rule="evenodd" d="M23 5.17468C23 4.70029 22.7089 4.27553 22.2669 4.10303L11.9172 0.0784338C11.6488 -0.0261446 11.3512 -0.0261446 11.0828 0.0784338L0.73309 4.10303C0.291061 4.27553 0 4.70032 0 5.17468V17.8253C0 18.2997 0.291089 18.7245 0.73309 18.897L11.0828 22.9216C11.3512 23.0261 11.6488 23.0261 11.9172 22.9216L22.2669 18.897C22.7089 18.7245 23 18.2997 23 17.8253V5.17468ZM11.5 8.54158L19.4165 5.46255L17.0447 4.53966L9.12815 7.6187L11.5 8.54158ZM5.9553 6.38427L13.8718 3.30634L11.5 2.38346L3.58348 5.46249L5.9553 6.38427ZM11.5 20.6153L2.30061 17.0381V7.43085L11.0827 10.8463C11.3511 10.9509 11.6487 10.9509 11.9171 10.8463L20.6992 7.43085V17.0381L11.5 20.6153Z" fill="#061A40"/>
</svg>
