<svg width="23" height="23" viewBox="0 0 23 23" fill="none" xmlns="http://www.w3.org/2000/svg">
<path d="M19.6088 9.70982C19.0647 9.70982 18.5286 9.85013 18.0466 10.1195L15.9747 7.9138C16.8093 6.24408 16.7578 4.23196 15.8413 2.61123C14.9236 0.990613 13.2742 0 11.4956 0C9.71707 0 8.06743 0.990613 7.14995 2.61123C6.23353 4.23185 6.18201 6.24386 7.01658 7.9138L4.94468 10.1153C3.46438 9.29591 1.64339 9.74491 0.65546 11.1747C-0.332469 12.6045 -0.189675 14.5857 0.989551 15.84C2.1701 17.0944 4.03467 17.246 5.38019 16.1964C6.72582 15.1469 7.1497 13.2105 6.37718 11.6388L8.31044 9.58463V9.58323C8.94298 10.1234 9.68642 10.4924 10.4814 10.6608V15.9814C8.88885 16.5132 7.90109 18.1997 8.15463 19.9524C8.40685 21.7063 9.82641 23 11.4956 23C13.1647 23 14.5842 21.7063 14.8365 19.9524C15.09 18.1999 14.1023 16.5133 12.5097 15.9814V10.6788C13.3047 10.5104 14.0481 10.14 14.6807 9.60119L16.6139 11.6554V11.6568C15.9193 13.088 16.2072 14.8363 17.3178 15.9321C18.4283 17.0293 20.0895 17.2061 21.3822 16.3656C22.6763 15.5251 23.285 13.8722 22.8717 12.3217C22.4584 10.7726 21.1246 9.70482 19.6087 9.70906L19.6088 9.70982ZM11.4955 2.16654C12.7262 2.16654 13.8355 2.9537 14.3069 4.16181C14.777 5.36992 14.5168 6.76043 13.6466 7.6851C12.7764 8.60976 11.4678 8.8862 10.3308 8.38666C9.1938 7.88575 8.45299 6.70709 8.45299 5.39937C8.45299 3.61456 9.81576 2.16654 11.4955 2.16654ZM3.38219 14.7387C2.83549 14.7387 2.34162 14.3893 2.13298 13.8519C1.92302 13.3145 2.03922 12.6971 2.42613 12.286C2.81305 11.8748 3.39408 11.7514 3.89985 11.9745C4.40561 12.1962 4.73443 12.7209 4.73443 13.3018C4.73443 13.6835 4.59181 14.0483 4.33827 14.3177C4.08472 14.5871 3.7414 14.7386 3.38222 14.7386L3.38219 14.7387ZM11.4955 20.8451C10.9488 20.8451 10.4549 20.4958 10.2463 19.9583C10.0363 19.4209 10.1525 18.8036 10.5394 18.3924C10.9263 17.9813 11.5074 17.8578 12.0131 18.0809C12.5189 18.3026 12.8477 18.8274 12.8477 19.4083C12.8477 19.7899 12.7051 20.1548 12.4516 20.4242C12.198 20.6936 11.8547 20.8451 11.4955 20.8451L11.4955 20.8451ZM19.6088 14.7387C19.0621 14.7387 18.5682 14.3893 18.3596 13.8519C18.1496 13.3145 18.2658 12.6971 18.6527 12.286C19.0396 11.8748 19.6207 11.7514 20.1264 11.9745C20.6322 12.1962 20.961 12.7209 20.961 13.3018C20.961 13.6835 20.8184 14.0483 20.5648 14.3177C20.3113 14.5871 19.968 14.7386 19.6088 14.7386L19.6088 14.7387Z" fill="#061A40"/>
</svg>
