<svg width="25" height="25" viewBox="0 0 25 25" fill="none" xmlns="http://www.w3.org/2000/svg">
<path d="M23.3233 8.61047C22.9504 8.61047 22.6476 8.89701 22.6476 9.24997V13.1156C22.6476 18.412 18.0949 22.7211 12.499 22.7211C6.90302 22.7211 2.35027 18.412 2.35027 13.1156L2.35132 9.24997C2.35132 8.89701 2.04858 8.61047 1.67566 8.61047C1.30274 8.61047 1 8.89701 1 9.24997V13.1156C1 19.1171 6.15908 24.0001 12.5 24.0001C18.8409 24.0001 24 19.1171 24 13.1156L23.999 9.24997C23.999 8.89701 23.6973 8.61047 23.3233 8.61047Z" fill="#061A40" stroke="#061A40" stroke-width="1.77574"/>
<path d="M7.32302 7.08672C7.49377 7.08672 7.66451 7.02525 7.7965 6.9033L11.8234 3.16151L11.8234 13.9239C11.8234 14.2769 12.1261 14.5634 12.499 14.5634C12.8719 14.5634 13.1747 14.2769 13.1747 13.9239L13.1747 3.16151L17.2015 6.9033C17.4676 7.15117 17.8961 7.1472 18.1569 6.89537C18.4188 6.64353 18.4146 6.23803 18.1485 5.99114L12.9768 1.18535L12.9726 1.18138C12.9622 1.17147 12.9507 1.16552 12.9402 1.15659C12.9182 1.13875 12.8962 1.11991 12.8721 1.10504C12.8532 1.09314 12.8333 1.08422 12.8134 1.07529C12.7946 1.06538 12.7768 1.05546 12.7569 1.04753C12.7328 1.03861 12.7076 1.03266 12.6825 1.02572C12.6657 1.02076 12.649 1.01481 12.6311 1.01184C12.5442 0.995973 12.4552 0.995973 12.3682 1.01184C12.3494 1.0158 12.3316 1.02175 12.3127 1.02671C12.2896 1.03266 12.2656 1.03861 12.2425 1.04753C12.2216 1.05546 12.2027 1.06637 12.1828 1.07727C12.1639 1.08719 12.1451 1.09512 12.1273 1.10603C12.1032 1.1209 12.0822 1.13875 12.0613 1.15659C12.0498 1.16552 12.0372 1.17246 12.0267 1.18237L6.84966 5.99096C6.58359 6.23882 6.5794 6.64334 6.84128 6.89518C6.97328 7.02308 7.14807 7.08672 7.32302 7.08672Z" fill="#061A40" stroke="#061A40" stroke-width="1.77574"/>
</svg>
