<svg width="147" height="147" viewBox="0 0 147 147" fill="none" xmlns="http://www.w3.org/2000/svg">
<g clip-path="url(#clip0_22_1450)">
<path fill-rule="evenodd" clip-rule="evenodd" d="M94.1317 99.0157C94.599 100.411 96.1764 101.482 97.6565 101.396L110.133 100.658C112.704 100.506 115.724 102.274 116.858 104.607L117.679 106.303L99.1086 109.839C96.5572 110.322 92.5161 110.039 90.0698 109.202L57.0944 97.9413C44.3785 101.277 31.1497 95.2793 25.2584 83.8292L21.5222 85.1379C18.903 86.0581 16.069 84.675 15.1888 82.0472L23.4632 62.7965C27.1587 54.2185 32.4383 47.6708 41.2637 44.7145C42.4578 44.3145 43.6621 44.0015 44.8634 43.7657C46.2375 43.4339 47.6417 43.2206 49.0546 43.1329C67.6862 41.9851 87.6601 59.8614 87.6601 59.8614C89.2406 61.1408 92.1495 62.1085 94.1832 61.9843L95.0467 61.933C97.0847 61.8073 99.2919 60.154 99.9941 58.2432L102.045 52.615L88.9169 50.896C71.2529 49.3921 68.9687 28.6038 68.9687 28.6038C68.7542 27.3524 69.527 26.7745 70.6825 27.311L102.613 42.0481L75.5841 26.6975C74.4401 22.373 77.4353 19.9036 77.4353 19.9036L106.64 43.9086L108.644 44.832L121.007 48.5305C123.836 49.3728 126.926 52.3313 127.896 55.1289L132.266 67.7461L131.722 68.609C130.339 70.8049 127.134 72.3068 124.563 71.9781L120.561 71.4716C116.527 70.9523 111.532 73.3491 109.402 76.8235L102.255 88.4711C101.476 89.7412 100.345 91.0817 99.0322 92.3497C93.1153 76.5903 82.2402 65.7673 65.0007 60.7698C63.5301 60.4294 62.448 63.21 63.5963 63.6679C79.6687 70.6795 88.1897 81.2821 93.3995 96.8348L94.1317 99.0157ZM124.115 61.4393C125.347 61.0264 126.015 59.6937 125.603 58.4654C125.193 57.2413 123.858 56.5797 122.625 56.9926C121.392 57.4055 120.725 58.7382 121.135 59.9622C121.547 61.1905 122.882 61.8522 124.115 61.4393ZM55.7984 130.73L55.0056 128.363C54.1812 125.902 55.2499 122.726 57.3501 121.223C57.3501 121.223 68.6626 114.068 70.2063 107.549L82.1166 111.856C71.2159 122.743 55.799 130.73 55.799 130.73L55.7984 130.73Z" fill="#8492A6"/>
</g>
<defs>
<clipPath id="clip0_22_1450">
<rect width="115.548" height="115.548" fill="white" transform="translate(0 36.7017) rotate(-18.5197)"/>
</clipPath>
</defs>
</svg>
