<svg width="20" height="19" viewBox="0 0 20 19" fill="none" xmlns="http://www.w3.org/2000/svg">
<path d="M18.4704 6.45599C18.1786 6.45599 17.9416 6.68024 17.9416 6.95647V9.98175C17.9416 14.1268 14.3786 17.4991 9.99918 17.4991C5.61975 17.4991 2.05673 14.1268 2.05673 9.98175L2.05755 6.95647C2.05755 6.68024 1.82063 6.45599 1.52878 6.45599C1.23693 6.45599 1 6.68024 1 6.95647V9.98175C1 14.6786 5.03754 18.5 10 18.5C14.9625 18.5 19 14.6786 19 9.98175L18.9992 6.95647C18.9992 6.68024 18.7631 6.45599 18.4704 6.45599Z" fill="white" stroke="white"/>
<path d="M14.0502 6.35132C13.9165 6.35132 13.7829 6.39942 13.6796 6.49486L10.5281 9.42321L10.5281 1.00049C10.5281 0.724266 10.2912 0.500021 9.99937 0.500021C9.70752 0.500021 9.4706 0.724266 9.4706 1.00049L9.4706 9.42321L6.31914 6.49486C6.1109 6.30088 5.77561 6.30398 5.57146 6.50107C5.36651 6.69816 5.36979 7.01551 5.57802 7.20872L9.62543 10.9698L9.62871 10.9729C9.63691 10.9806 9.64593 10.9853 9.65412 10.9923C9.67134 11.0062 9.68856 11.021 9.70741 11.0326C9.72217 11.0419 9.73774 11.0489 9.75332 11.0559C9.76808 11.0637 9.78202 11.0714 9.79759 11.0776C9.81645 11.0846 9.83612 11.0893 9.8558 11.0947C9.86892 11.0986 9.88203 11.1032 9.89597 11.1056C9.96402 11.118 10.0337 11.118 10.1017 11.1056C10.1165 11.1025 10.1304 11.0978 10.1452 11.0939C10.1632 11.0893 10.1821 11.0846 10.2001 11.0776C10.2165 11.0714 10.2313 11.0629 10.2469 11.0543C10.2616 11.0466 10.2764 11.0404 10.2903 11.0318C10.3092 11.0202 10.3256 11.0062 10.342 10.9923C10.351 10.9853 10.3608 10.9799 10.369 10.9721L14.4206 7.20887C14.6288 7.01489 14.6321 6.69831 14.4272 6.50122C14.3239 6.40112 14.1871 6.35132 14.0502 6.35132Z" fill="white" stroke="white"/>
</svg>
