<svg width="44" height="44" viewBox="0 0 44 44" fill="none" xmlns="http://www.w3.org/2000/svg">
<path d="M15.3072 40.04H3.96V28.5657C3.96 28.0793 3.5664 27.6857 3.08 27.6857C2.59359 27.6857 2.2 28.0793 2.2 28.5657V40.92C2.2 41.1538 2.29281 41.3773 2.45781 41.5423C2.62281 41.7073 2.84625 41.8001 3.08001 41.8001H15.3072C15.7936 41.8001 16.1872 41.4065 16.1872 40.9201C16.1872 40.4337 15.7936 40.0401 15.3072 40.0401L15.3072 40.04Z" fill="white"/>
<path d="M40.92 27.6857C40.4336 27.6857 40.04 28.0793 40.04 28.5657V40.04H28.5243C28.0396 40.04 27.6443 40.4336 27.6443 40.92C27.6443 41.4064 28.0396 41.8 28.5243 41.8H40.92C41.1537 41.8 41.3772 41.7072 41.5422 41.5422C41.7072 41.3772 41.8 41.1538 41.8 40.92V28.5657C41.8 28.3319 41.7072 28.1068 41.5422 27.9418C41.3772 27.7768 41.1538 27.6857 40.92 27.6857V27.6857Z" fill="white"/>
<path d="M40.92 2.20003H28.626C28.1413 2.20003 27.746 2.59362 27.746 3.08003C27.746 3.56644 28.1413 3.96003 28.626 3.96003H40.04V15.2504C40.04 15.7368 40.4336 16.1304 40.92 16.1304C41.4064 16.1304 41.8 15.7368 41.8 15.2504V3.08003C41.8 2.84628 41.7072 2.62283 41.5422 2.45783C41.3772 2.29283 41.1537 2.20001 40.92 2.20001L40.92 2.20003Z" fill="white"/>
<path d="M3.08003 16.28C3.31378 16.28 3.53723 16.1872 3.70223 16.0222C3.86723 15.8572 3.96004 15.6338 3.96004 15.4V3.96001H15.3604C15.8469 3.96001 16.2404 3.56642 16.2404 3.08001C16.2404 2.59361 15.8469 2.20001 15.3604 2.20001H3.08004C2.59362 2.20001 2.20004 2.59361 2.20004 3.08001V15.4C2.20004 15.6338 2.29286 15.8572 2.45786 16.0222C2.62286 16.1872 2.84629 16.28 3.08006 16.28H3.08003Z" fill="white"/>
<path d="M8.36 8.8V15.84C8.36 16.0737 8.45281 16.2972 8.61781 16.4622C8.78281 16.6272 9.00625 16.72 9.24002 16.72H16.28C16.5138 16.72 16.7372 16.6272 16.9022 16.4622C17.0672 16.2972 17.16 16.0738 17.16 15.84V8.8C17.16 8.56625 17.0672 8.3428 16.9022 8.1778C16.7372 8.0128 16.5138 7.91998 16.28 7.91998H9.24002C8.7536 7.91998 8.36002 8.31358 8.36002 8.79998L8.36 8.8ZM10.12 9.68H15.4V14.96H10.12V9.68Z" fill="white"/>
<path d="M27.72 16.72H34.76C34.9937 16.72 35.2172 16.6272 35.3822 16.4622C35.5472 16.2972 35.64 16.0738 35.64 15.84V8.8C35.64 8.56625 35.5472 8.3428 35.3822 8.1778C35.2172 8.0128 34.9938 7.91998 34.76 7.91998H27.72C27.2336 7.91998 26.84 8.31358 26.84 8.79998V15.84C26.84 16.0737 26.9328 16.2972 27.0978 16.4622C27.2628 16.6272 27.4862 16.72 27.72 16.72L27.72 16.72ZM28.6 9.68002H33.88V14.96H28.6V9.68002Z" fill="white"/>
<path d="M16.28 27.28H9.24C8.75358 27.28 8.36 27.6736 8.36 28.16V35.2C8.36 35.4338 8.45281 35.6573 8.61781 35.8223C8.78281 35.9873 9.00625 36.0801 9.24002 36.0801H16.28C16.5138 36.0801 16.7372 35.9873 16.9022 35.8223C17.0672 35.6573 17.16 35.4338 17.16 35.2V28.16C17.16 27.9263 17.0672 27.7028 16.9022 27.5378C16.7372 27.3728 16.5138 27.28 16.28 27.28L16.28 27.28ZM15.4 34.32H10.12V29.04H15.4V34.32Z" fill="white"/>
<path d="M11 10.5601H14.52V14.0801H11V10.5601Z" fill="white"/>
<path d="M11 29.92H14.52V33.44H11V29.92Z" fill="white"/>
<path d="M29.48 10.5601H33V14.0801H29.48V10.5601Z" fill="white"/>
<path d="M22 14.96H20.24V13.2H18.48V16.72H23.76V14.96H22Z" fill="white"/>
<path d="M14.96 18.48H16.72V20.24H14.96V18.48Z" fill="white"/>
<path d="M16.72 20.2401H18.48V22H16.72V20.2401Z" fill="white"/>
<path d="M20.24 18.48H18.48V20.24H22V18.48H20.24Z" fill="white"/>
<path d="M22 20.2401H23.76V22H22V20.2401Z" fill="white"/>
<path d="M14.96 23.76V25.52H16.72V22H14.96V23.76Z" fill="white"/>
<path d="M20.24 22H22V23.76H20.24V22Z" fill="white"/>
<path d="M18.48 23.76H20.24V25.52H18.48V23.76Z" fill="white"/>
<path d="M7.92 23.76V25.52H11.44V23.76H7.92Z" fill="white"/>
<path d="M32.56 18.48H34.32V20.24H32.56V18.48Z" fill="white"/>
<path d="M32.56 34.3201V36.0801H36.08V34.3201H34.32V32.5601H32.56V34.3201Z" fill="white"/>
<path d="M27.28 20.24V18.48H25.52V16.72H23.76V20.24H27.28Z" fill="white"/>
<path d="M23.76 27.28H25.52V29.04H23.76V27.28Z" fill="white"/>
<path d="M22 29.04H23.76V30.8H22V29.04Z" fill="white"/>
<path d="M20.24 30.8H22V32.56H20.24V30.8Z" fill="white"/>
<path d="M22 25.52H20.24V27.28H18.48V29.04H22V25.52Z" fill="white"/>
<path d="M22 23.76H23.76V25.52H22V23.76Z" fill="white"/>
<path d="M34.32 20.2401H36.08V22H34.32V20.2401Z" fill="white"/>
<path d="M32.56 22H34.32V23.76H32.56V22Z" fill="white"/>
<path d="M34.32 23.76H36.08V25.52H34.32V23.76Z" fill="white"/>
<path d="M23.76 14.96H25.52V11.44H23.76V14.96Z" fill="white"/>
<path d="M20.24 11.44H22V13.2H20.24V11.44Z" fill="white"/>
<path d="M20.24 34.32H22V36.08H20.24V34.32Z" fill="white"/>
<path d="M18.48 32.5601H20.24V34.3201H18.48V32.5601Z" fill="white"/>
<path d="M23.76 9.68004V7.92004H20.24V9.68004H22V11.44H23.76V9.68004Z" fill="white"/>
<path d="M25.52 25.52H27.28V27.28H25.52V25.52Z" fill="white"/>
<path d="M27.28 30.8H25.52V32.56H22V34.32H23.76V36.08H25.52V34.32H27.28V30.8Z" fill="white"/>
<path d="M30.8 30.8H29.04V34.3201H30.8V32.5601H32.56V30.8H30.8Z" fill="white"/>
<path d="M27.28 23.76H29.04V25.52H27.28V23.76Z" fill="white"/>
<path d="M25.52 22H27.28V23.76H25.52V22Z" fill="white"/>
<path d="M30.8 22V18.48H29.04V23.76H30.8V22Z" fill="white"/>
<path d="M7.92 20.2401H9.68V22H7.92V20.2401Z" fill="white"/>
<path d="M27.28 34.32H29.04V36.08H27.28V34.32Z" fill="white"/>
<path d="M34.32 32.56H36.08V29.04H34.32V32.56Z" fill="white"/>
<path d="M13.2 20.24V18.48H9.67999V20.24H11.44V23.76H13.2V22H14.96V20.24H13.2Z" fill="white"/>
<path d="M29.04 25.52V27.28H30.8V29.04H34.32V27.28H32.56V23.76H30.8V25.52H29.04Z" fill="white"/>
<path d="M29.04 27.28H27.28V30.8H29.04V27.28Z" fill="white"/>
</svg>
