<svg width="22" height="22" viewBox="0 0 22 22" fill="none" xmlns="http://www.w3.org/2000/svg">
<path d="M5.92288 2.37793C5.55764 2.37793 5.26288 2.67357 5.26288 3.03793V4.03653L4.69225 4.03739C3.23475 4.03739 2.05225 5.21903 2.05225 6.67739V16.9822C2.05225 18.4397 3.23475 19.6222 4.69225 19.6222H17.3079C18.7654 19.6222 19.9479 18.4397 19.9479 16.9822V6.67739C19.9479 5.21903 18.7654 4.03739 17.3079 4.03739H16.7373V3.03793C16.7373 2.67357 16.4425 2.37793 16.0773 2.37793C15.7129 2.37793 15.4173 2.67357 15.4173 3.03793V4.03653L11.6601 4.03739V3.03793C11.6601 2.67357 11.3645 2.37793 11.0001 2.37793C10.6358 2.37793 10.3401 2.67357 10.3401 3.03793V4.03653L6.58297 4.03739V3.03793C6.58297 2.67357 6.28733 2.37793 5.92297 2.37793L5.92288 2.37793ZM18.6279 16.9822C18.6279 17.7109 18.0366 18.3022 17.3079 18.3022H4.6922C3.96345 18.3022 3.3722 17.7109 3.3722 16.9822V9.77895H18.6279V16.9822ZM10.34 5.35739V6.35599C10.34 6.72036 10.6357 7.01599 11 7.01599C11.3644 7.01599 11.66 6.72036 11.66 6.35599V5.35739H15.4172V6.35599C15.4172 6.72036 15.7128 7.01599 16.0772 7.01599C16.4424 7.01599 16.7372 6.72036 16.7372 6.35599V5.35739H17.3078C18.0366 5.35739 18.6278 5.94778 18.6278 6.67739V8.45974L3.37216 8.45888V6.67653V6.67739C3.37216 5.94778 3.96341 5.35739 4.69216 5.35739H5.26191V6.35599H5.26277C5.26277 6.72036 5.55753 7.01599 5.92277 7.01599C6.28714 7.01599 6.58277 6.72036 6.58277 6.35599V5.35739H10.34Z" fill="#8492A6"/>
</svg>
