<svg width="22" height="22" viewBox="0 0 22 22" fill="none" xmlns="http://www.w3.org/2000/svg">
<path d="M10.4454 20.3441C10.5743 20.5211 10.7805 20.6251 10.9997 20.6251C11.2188 20.6251 11.4251 20.5211 11.5539 20.3441L16.8203 13.1631C17.6135 12.0768 18.0999 10.7972 18.2297 9.4574C18.3586 8.1185 18.1265 6.76922 17.5559 5.55064C17.0291 4.37931 16.193 3.37299 15.1368 2.64004C14.0815 1.90786 12.8457 1.47729 11.5636 1.39394C11.188 1.36901 10.8116 1.36901 10.4361 1.39394C9.15388 1.4773 7.91816 1.90783 6.86282 2.6409C5.80665 3.37308 4.97047 4.3794 4.4437 5.55084C3.87395 6.76944 3.64105 8.11868 3.77081 9.4576C3.89972 10.7974 4.38613 12.0769 5.17932 13.1633L10.4454 20.3441ZM5.69051 6.131C6.11504 5.18396 6.78965 4.37014 7.64215 3.77722C8.49465 3.18425 9.49151 2.83447 10.5279 2.76572C10.6834 2.75541 10.8416 2.75025 10.9997 2.75025C11.1578 2.75025 11.3159 2.75541 11.4706 2.76572C12.507 2.83447 13.5048 3.18423 14.3572 3.77722C15.2097 4.37018 15.8843 5.18401 16.3089 6.131C16.7755 7.12615 16.9663 8.22874 16.8606 9.32276C16.7557 10.4168 16.3587 11.4626 15.7107 12.3504L10.9997 18.7751L6.28858 12.3504C5.64061 11.4627 5.24358 10.4168 5.13873 9.32276C5.03302 8.22876 5.2238 7.12619 5.69044 6.131H5.69051Z" fill="#8492A6"/>
<path d="M10.9999 12.375C12.0028 12.375 12.9645 11.9762 13.6734 11.2672C14.3823 10.5583 14.7811 9.59661 14.7811 8.59381C14.7811 7.591 14.3824 6.62927 13.6734 5.92037C12.9644 5.21146 12.0027 4.81262 10.9999 4.81262C9.99713 4.81262 9.0354 5.21137 8.32649 5.92037C7.61759 6.62936 7.21875 7.591 7.21875 8.59381C7.21961 9.5967 7.61836 10.5575 8.32735 11.2664C9.03635 11.9754 9.99711 12.3741 10.9999 12.375L10.9999 12.375ZM10.9999 6.18749C11.9728 6.18749 12.8502 6.77359 13.223 7.67249C13.5951 8.57225 13.3898 9.60695 12.7014 10.2953C12.013 10.9837 10.9784 11.1891 10.0786 10.817C9.17965 10.444 8.59355 9.56658 8.59355 8.59387C8.59527 7.26527 9.6712 6.18927 10.9999 6.18751L10.9999 6.18749Z" fill="#8492A6"/>
</svg>
