<svg width="14" height="14" viewBox="0 0 14 14" fill="none" xmlns="http://www.w3.org/2000/svg">
<path fill-rule="evenodd" clip-rule="evenodd" d="M3.69362 2.58076C5.5174 0.695104 8.4826 0.695104 10.3064 2.58076C12.0592 4.3925 12.1258 7.29918 10.4611 9.19464L7.43799 12.635C7.32752 12.7613 7.16783 12.8335 6.99994 12.8335C6.83205 12.8335 6.67237 12.7613 6.56189 12.635L3.53873 9.19464C1.87399 7.29918 1.94077 4.3925 3.6935 2.58076H3.69362ZM4.6665 5.83352C4.6665 4.54454 5.71158 3.5 7.00002 3.5C8.28847 3.5 9.33354 4.54453 9.33354 5.83352C9.33354 7.12196 8.28847 8.16648 7.00002 8.16648C5.71158 8.16648 4.6665 7.12196 4.6665 5.83352Z" fill="#6C8A7B"/>
</svg>
