<svg width="27" height="27" viewBox="0 0 27 27" fill="none" xmlns="http://www.w3.org/2000/svg">
<path d="M9.39303 24.57H2.43V17.5289C2.43 17.2305 2.18848 16.9889 1.89 16.9889C1.59152 16.9889 1.35 17.2305 1.35 17.5289V25.11C1.35 25.2534 1.40695 25.3906 1.5082 25.4918C1.60945 25.5931 1.74656 25.65 1.89001 25.65H9.39304C9.69153 25.65 9.93304 25.4085 9.93304 25.11C9.93304 24.8115 9.69152 24.57 9.39304 24.57L9.39303 24.57Z" fill="white"/>
<path d="M25.11 16.9889C24.8115 16.9889 24.57 17.2305 24.57 17.5289V24.57H17.5036C17.2061 24.57 16.9636 24.8115 16.9636 25.11C16.9636 25.4085 17.2061 25.65 17.5036 25.65H25.11C25.2534 25.65 25.3906 25.593 25.4918 25.4918C25.5931 25.3905 25.65 25.2534 25.65 25.11V17.5289C25.65 17.3855 25.5931 17.2473 25.4918 17.1461C25.3906 17.0448 25.2534 16.9889 25.11 16.9889V16.9889Z" fill="white"/>
<path d="M25.11 1.35H17.5659C17.2685 1.35 17.0259 1.59152 17.0259 1.89C17.0259 2.18848 17.2685 2.43 17.5659 2.43H24.57V9.3582C24.57 9.65668 24.8115 9.8982 25.11 9.8982C25.4085 9.8982 25.65 9.65668 25.65 9.3582V1.89C25.65 1.74656 25.593 1.60944 25.4918 1.50819C25.3905 1.40694 25.2534 1.34999 25.11 1.34999L25.11 1.35Z" fill="white"/>
<path d="M1.89003 9.99C2.03347 9.99 2.17059 9.93305 2.27184 9.8318C2.37309 9.73055 2.43004 9.59344 2.43004 9.44999V2.42999H9.42574C9.72423 2.42999 9.96574 2.18847 9.96574 1.88999C9.96574 1.59151 9.72422 1.34999 9.42574 1.34999H1.89004C1.59156 1.34999 1.35004 1.59151 1.35004 1.88999V9.44999C1.35004 9.59343 1.40699 9.73055 1.50824 9.8318C1.60949 9.93305 1.7466 9.99 1.89005 9.99H1.89003Z" fill="white"/>
<path d="M5.13 5.4V9.72C5.13 9.86344 5.18695 10.0006 5.2882 10.1018C5.38945 10.2031 5.52656 10.26 5.67001 10.26H9.99001C10.1334 10.26 10.2706 10.2031 10.3718 10.1018C10.4731 10.0006 10.53 9.86345 10.53 9.72V5.4C10.53 5.25656 10.4731 5.11944 10.3718 5.01819C10.2706 4.91694 10.1335 4.85999 9.99001 4.85999H5.67001C5.37153 4.85999 5.13001 5.10151 5.13001 5.39999L5.13 5.4ZM6.21 5.94H9.45V9.18H6.21V5.94Z" fill="white"/>
<path d="M17.01 10.26H21.33C21.4734 10.26 21.6106 10.203 21.7118 10.1018C21.8131 10.0005 21.87 9.86344 21.87 9.71999V5.39999C21.87 5.25655 21.8131 5.11943 21.7118 5.01818C21.6106 4.91693 21.4734 4.85998 21.33 4.85998H17.01C16.7115 4.85998 16.47 5.1015 16.47 5.39998V9.71998C16.47 9.86342 16.527 10.0005 16.6282 10.1018C16.7295 10.203 16.8666 10.26 17.01 10.26L17.01 10.26ZM17.55 5.94H20.79V9.18H17.55V5.94Z" fill="white"/>
<path d="M9.99 16.74H5.67C5.37152 16.74 5.13 16.9815 5.13 17.28V21.6C5.13 21.7434 5.18695 21.8806 5.2882 21.9818C5.38945 22.0831 5.52656 22.14 5.67001 22.14H9.99001C10.1334 22.14 10.2706 22.0831 10.3718 21.9818C10.4731 21.8806 10.53 21.7434 10.53 21.6V17.28C10.53 17.1366 10.4731 16.9994 10.3718 16.8982C10.2706 16.7969 10.1335 16.74 9.99001 16.74L9.99 16.74ZM9.45 21.06H6.21V17.82H9.45V21.06Z" fill="white"/>
<path d="M6.75 6.48H8.91V8.64H6.75V6.48Z" fill="white"/>
<path d="M6.75 18.36H8.91V20.52H6.75V18.36Z" fill="white"/>
<path d="M18.09 6.48H20.25V8.64H18.09V6.48Z" fill="white"/>
<path d="M13.5 9.18H12.42V8.1H11.34V10.26H14.58V9.18H13.5Z" fill="white"/>
<path d="M9.18 11.34H10.26V12.42H9.18V11.34Z" fill="white"/>
<path d="M10.26 12.42H11.34V13.5H10.26V12.42Z" fill="white"/>
<path d="M12.42 11.34H11.34V12.42H13.5V11.34H12.42Z" fill="white"/>
<path d="M13.5 12.42H14.58V13.5H13.5V12.42Z" fill="white"/>
<path d="M9.18 14.58V15.66H10.26V13.5H9.18V14.58Z" fill="white"/>
<path d="M12.42 13.5H13.5V14.58H12.42V13.5Z" fill="white"/>
<path d="M11.34 14.58H12.42V15.66H11.34V14.58Z" fill="white"/>
<path d="M4.86 14.58V15.66H7.02V14.58H4.86Z" fill="white"/>
<path d="M19.98 11.34H21.06V12.42H19.98V11.34Z" fill="white"/>
<path d="M19.98 21.06V22.14H22.14V21.06H21.06V19.98H19.98V21.06Z" fill="white"/>
<path d="M16.74 12.42V11.34H15.66V10.26H14.58V12.42H16.74Z" fill="white"/>
<path d="M14.58 16.74H15.66V17.82H14.58V16.74Z" fill="white"/>
<path d="M13.5 17.82H14.58V18.9H13.5V17.82Z" fill="white"/>
<path d="M12.42 18.9H13.5V19.98H12.42V18.9Z" fill="white"/>
<path d="M13.5 15.66H12.42V16.74H11.34V17.82H13.5V15.66Z" fill="white"/>
<path d="M13.5 14.58H14.58V15.66H13.5V14.58Z" fill="white"/>
<path d="M21.06 12.42H22.14V13.5H21.06V12.42Z" fill="white"/>
<path d="M19.98 13.5H21.06V14.58H19.98V13.5Z" fill="white"/>
<path d="M21.06 14.58H22.14V15.66H21.06V14.58Z" fill="white"/>
<path d="M14.58 9.18H15.66V7.02H14.58V9.18Z" fill="white"/>
<path d="M12.42 7.02H13.5V8.1H12.42V7.02Z" fill="white"/>
<path d="M12.42 21.06H13.5V22.14H12.42V21.06Z" fill="white"/>
<path d="M11.34 19.98H12.42V21.06H11.34V19.98Z" fill="white"/>
<path d="M14.58 5.94V4.86H12.42V5.94H13.5V7.02H14.58V5.94Z" fill="white"/>
<path d="M15.66 15.66H16.74V16.74H15.66V15.66Z" fill="white"/>
<path d="M16.74 18.9H15.66V19.98H13.5V21.06H14.58V22.14H15.66V21.06H16.74V18.9Z" fill="white"/>
<path d="M18.9 18.9H17.82V21.06H18.9V19.98H19.98V18.9H18.9Z" fill="white"/>
<path d="M16.74 14.58H17.82V15.66H16.74V14.58Z" fill="white"/>
<path d="M15.66 13.5H16.74V14.58H15.66V13.5Z" fill="white"/>
<path d="M18.9 13.5V11.34H17.82V14.58H18.9V13.5Z" fill="white"/>
<path d="M4.86 12.42H5.94V13.5H4.86V12.42Z" fill="white"/>
<path d="M16.74 21.06H17.82V22.14H16.74V21.06Z" fill="white"/>
<path d="M21.06 19.98H22.14V17.82H21.06V19.98Z" fill="white"/>
<path d="M8.1 12.42V11.34H5.94V12.42H7.02V14.58H8.1V13.5H9.18V12.42H8.1Z" fill="white"/>
<path d="M17.82 15.66V16.74H18.9V17.82H21.06V16.74H19.98V14.58H18.9V15.66H17.82Z" fill="white"/>
<path d="M17.82 16.74H16.74V18.9H17.82V16.74Z" fill="white"/>
</svg>
