<svg width="86" height="86" viewBox="0 0 86 86" fill="none" xmlns="http://www.w3.org/2000/svg">
<path d="M24.5726 0H-0.000915527V24.5735H24.5726V0Z" fill="white"/>
<path d="M24.5726 30.7157H-0.000915527V86.0004H24.5726V30.7157Z" fill="white"/>
<path d="M30.7146 0H55.2836V86.0005H30.7146V0Z" fill="white"/>
<path d="M86 61.4315H61.4265V86.005H86V61.4315Z" fill="white"/>
<path d="M86 0H61.4265V55.2847H86V0Z" fill="white"/>
<path d="M24.5726 0H-0.000915527V24.5735H24.5726V0Z" fill="white"/>
<path d="M24.5726 30.7157H-0.000915527V86.0004H24.5726V30.7157Z" fill="white"/>
<path d="M30.7146 0H55.2836V86.0005H30.7146V0Z" fill="white"/>
<path d="M86 61.4315H61.4265V86.005H86V61.4315Z" fill="white"/>
<path d="M86 0H61.4265V55.2847H86V0Z" fill="white"/>
</svg>
