<svg width="22" height="22" viewBox="0 0 22 22" fill="none" xmlns="http://www.w3.org/2000/svg">
<path d="M20.5702 5.8025C20.5702 6.41007 20.0777 6.9025 19.4702 6.9025H2.53018C1.9226 6.9025 1.43018 6.41007 1.43018 5.8025V4.77554C1.43018 4.16796 1.9226 3.67554 2.53018 3.67554H19.4702C20.0777 3.67554 20.5702 4.16796 20.5702 4.77554V5.8025Z" fill="#42526E"/>
<path d="M17.27 11.5131C17.27 12.1206 16.7776 12.6131 16.17 12.6131H5.82998C5.22241 12.6131 4.72998 12.1206 4.72998 11.5131V10.487C4.72998 9.87939 5.22241 9.38696 5.82998 9.38696H16.17C16.7776 9.38696 17.27 9.87939 17.27 10.487V11.5131Z" fill="#42526E"/>
<path d="M13.9703 17.2245C13.9703 17.8321 13.4778 18.3245 12.8703 18.3245H9.13027C8.5227 18.3245 8.03027 17.8321 8.03027 17.2245V16.1975C8.03027 15.59 8.5227 15.0975 9.13027 15.0975H12.8703C13.4778 15.0975 13.9703 15.59 13.9703 16.1975V17.2245Z" fill="#42526E"/>
</svg>
