<svg width="22" height="22" viewBox="0 0 22 22" fill="none" xmlns="http://www.w3.org/2000/svg">
<g clip-path="url(#clip0_111_5886)">
<path d="M16.207 7.01562C15.2341 7.01562 14.3017 7.40148 13.6143 8.08898C12.9268 8.77648 12.54 9.70977 12.54 10.6817C12.54 11.6545 12.9268 12.5869 13.6143 13.2744C14.3018 13.9618 15.2342 14.3486 16.207 14.3486C17.1789 14.3486 18.1122 13.9619 18.7997 13.2744C19.4871 12.5869 19.873 11.6545 19.873 10.6817C19.8722 9.70972 19.4854 8.77818 18.7979 8.09074C18.1104 7.40331 17.1789 7.01653 16.207 7.01567L16.207 7.01562ZM16.207 13.6156C15.0202 13.6156 13.9502 12.9006 13.4966 11.8041C13.0428 10.7083 13.2937 9.44676 14.1325 8.60812C14.9712 7.76851 16.2328 7.51758 17.3293 7.97218C18.425 8.42593 19.14 9.49586 19.14 10.6817C19.1383 12.3016 17.826 13.6139 16.207 13.6156H16.207Z" fill="#42526E"/>
<path d="M21.1011 9.09044L21.0324 7.67076C21.0186 7.37858 20.833 7.12334 20.5597 7.02022L19.2303 6.51748L18.3417 5.40802C18.1586 5.18027 17.8579 5.08231 17.576 5.15966L16.207 5.53692L14.8363 5.16138C14.5535 5.08403 14.2528 5.182 14.0697 5.40974L13.1811 6.51834L12.7832 6.66873L12.7841 6.66959C12.693 6.42209 12.5314 6.20552 12.32 6.0474C12.6225 5.83772 12.8124 5.50084 12.833 5.13304V2.2C12.833 0.755392 9.60608 0 6.41608 0C3.22696 0 0 0.755392 0 2.2V5.13304C0.0214843 5.50086 0.210547 5.83772 0.51304 6.0474C0.207966 6.25709 0.01804 6.59655 0 6.96694V9.89998C0.0180468 10.2678 0.20539 10.6064 0.507892 10.8169C0.205392 11.0266 0.01804 11.3652 0 11.733V14.6661C0 16.1107 3.22696 16.8661 6.41696 16.8661C9.57 16.8661 12.76 16.1262 12.8271 14.7116L13.1803 14.8448L13.3857 15.1018L11.7623 20.265C11.697 20.491 11.7434 20.735 11.8878 20.9215C12.0339 21.1037 12.2548 21.2086 12.4885 21.2077L13.6487 21.1751L14.4135 21.823C14.6069 21.988 14.8724 22.0413 15.1148 21.9631C15.3571 21.8849 15.541 21.6864 15.602 21.4397L16.2294 18.9346L16.855 21.4336V21.4327C16.9117 21.6828 17.0948 21.8839 17.338 21.9638C17.5812 22.0437 17.8484 21.9905 18.0427 21.8246L18.8075 21.1749L19.9703 21.2076H19.9694C20.2057 21.2127 20.4309 21.1053 20.5735 20.9171C20.7171 20.7289 20.7617 20.484 20.693 20.2571L19.0593 15.0587L19.2295 14.8456L20.5589 14.3429H20.5598C20.8322 14.2397 21.0178 13.9845 21.0324 13.6923L21.1012 12.2726L21.8806 11.0833C22.0405 10.8392 22.0405 10.5238 21.8806 10.2798L21.1011 9.09044ZM6.41702 12.1C7.90631 12.1198 9.39142 11.9307 10.8274 11.5372L11.3086 12.2702L11.3146 12.4051C10.2516 12.8993 8.40909 13.2 6.41699 13.2C2.94759 13.2 0.73307 12.3312 0.73307 11.7331C0.73307 11.5861 0.904085 11.4031 1.198 11.2269C2.36417 11.7743 4.28482 12.1 6.41706 12.1L6.41702 12.1ZM10.5299 10.2799C10.4122 10.4604 10.3795 10.6829 10.4405 10.89C9.1257 11.2226 7.77305 11.3833 6.41697 11.367C4.31751 11.367 2.37711 11.0319 1.34927 10.4913C0.963412 10.2911 0.733094 10.0702 0.733094 9.90005V8.04036C1.86488 8.78201 4.14749 9.167 6.41701 9.167C8.08851 9.20568 9.75485 8.95474 11.3413 8.42451L11.3086 9.09051L10.5299 10.2799ZM11.4271 5.76308C10.523 6.20394 8.75785 6.60011 6.41705 6.60011C4.07515 6.60011 2.31009 6.20479 1.40699 5.76308C1.37003 5.73472 1.32878 5.71237 1.28324 5.69948C0.928311 5.50698 0.733237 5.30848 0.733237 5.13316V3.27434C1.86503 4.01512 4.14764 4.40012 6.41716 4.40012C8.6858 4.40012 10.9685 4.01512 12.1002 3.27434V5.13316C12.1002 5.30847 11.9051 5.50613 11.5502 5.69948C11.5055 5.71237 11.4634 5.73472 11.4273 5.76308H11.4271ZM6.41705 0.733217C9.88645 0.733217 12.1001 1.60204 12.1001 2.20018C12.1001 2.79831 9.88645 3.66714 6.41705 3.66714C2.94765 3.66714 0.733127 2.79831 0.733127 2.20018C0.733127 1.60204 2.94765 0.733217 6.41705 0.733217ZM6.41705 7.33322C8.40908 7.33322 10.4166 7.04018 11.6429 6.46439C11.9076 6.62424 12.0683 6.78925 12.0941 6.9276L11.8509 7.01956L11.85 7.02042C11.6008 7.11667 11.4246 7.34181 11.3903 7.60738C10.3375 8.1187 8.46318 8.43323 6.41718 8.43323C2.94778 8.43323 0.733257 7.56527 0.733257 6.96713C0.733257 6.82018 0.901693 6.63971 1.19044 6.46527C2.41762 7.04019 4.4251 7.33323 6.4172 7.33323L6.41705 7.33322ZM12.1001 14.6671C12.1001 15.2653 9.88645 16.1341 6.41705 16.1341C2.94765 16.1332 0.733127 15.2653 0.733127 14.6671V12.8075C1.86492 13.5491 4.14753 13.9332 6.41705 13.9332C8.38244 13.9332 10.1691 13.6582 11.3534 13.1873L11.3775 13.6918C11.3912 13.9839 11.5768 14.2401 11.8501 14.3432L12.1002 14.4377L12.1001 14.6671ZM14.8888 21.2671L14.1214 20.614C13.9847 20.4971 13.8094 20.4361 13.6298 20.4413L12.4645 20.4782L13.9375 15.7911L14.0681 15.9544C14.2503 16.1839 14.5519 16.2818 14.8338 16.2036L16.2054 15.8289L16.2475 15.8401L14.8888 21.2671ZM19.9902 20.4765L18.8334 20.4438L18.8343 20.443C18.6513 20.4344 18.4725 20.4963 18.3333 20.6157L17.5676 21.2611L16.6068 17.4248L16.9548 16.0343L17.5762 16.2044V16.2036C17.858 16.2809 18.1588 16.183 18.3419 15.9552L18.5077 15.749L19.9902 20.4765ZM21.2672 10.6821L20.4886 11.8706V11.8697C20.4164 11.9797 20.3752 12.1061 20.3691 12.2367L20.3004 13.6564L18.9701 14.16C18.848 14.2064 18.7398 14.2846 18.6581 14.3869L17.7695 15.4963L16.7855 15.2265C16.7829 15.2265 16.7821 15.2239 16.7795 15.2239H16.7743L16.3997 15.1216H16.4005C16.2733 15.0864 16.1393 15.0864 16.0121 15.1216L14.6414 15.4972L13.7528 14.3868H13.7519C13.6703 14.2846 13.562 14.2064 13.4391 14.16L12.6132 13.8472L12.6021 13.8429L12.1096 13.6564L12.0418 12.2358V12.2367C12.0349 12.1061 11.9936 11.9789 11.9223 11.8697L11.1437 10.6804L11.9223 9.49187C11.9936 9.38187 12.0349 9.25554 12.0418 9.12491L12.1096 7.70523L12.6081 7.51616L13.4382 7.20249H13.4374C13.5603 7.15608 13.6685 7.07788 13.7502 6.97474L14.6405 5.867L16.0112 6.24168C16.1384 6.27692 16.2725 6.27692 16.3988 6.24168L17.7704 5.867L18.6581 6.9756V6.97474C18.7397 7.07787 18.848 7.15693 18.9709 7.20334L20.3004 7.70609L20.3691 9.12577V9.12663C20.3751 9.25725 20.4164 9.38359 20.4877 9.49273L21.2672 10.6812L21.574 10.8823L21.2672 10.6821Z" fill="#42526E"/>
<path d="M16.9999 9.3789L15.7813 11.2068L15.3628 10.7891C15.2193 10.6508 14.9907 10.6525 14.8489 10.7934C14.708 10.9352 14.7054 11.1638 14.8446 11.3082L15.5777 12.0412C15.6464 12.11 15.7401 12.1487 15.8372 12.1487H15.8742C15.9833 12.1375 16.0821 12.0782 16.1423 11.9871L17.6093 9.78709C17.6651 9.70631 17.6866 9.60663 17.6677 9.50952C17.6496 9.41327 17.5929 9.32819 17.5113 9.2732C17.4296 9.21906 17.3291 9.19929 17.2328 9.21992C17.1366 9.23968 17.0524 9.29812 16.9991 9.38062L16.9999 9.3789Z" fill="#42526E"/>
<path d="M7.6664 2.24042C7.77124 2.2473 7.87522 2.25503 7.97836 2.26277C7.98867 2.26363 7.99898 2.26363 8.00929 2.26277C8.21125 2.27136 8.38226 2.11324 8.39086 1.91127C8.39859 1.70846 8.24133 1.53745 8.03851 1.5297C7.93109 1.52111 7.8228 1.51338 7.71366 1.50564C7.5117 1.49275 7.3364 1.64572 7.32351 1.84853C7.31062 2.05135 7.46445 2.22579 7.6664 2.23868L7.6664 2.24042Z" fill="#42526E"/>
<path d="M2.91316 2.5389C2.9398 2.5389 2.96558 2.53632 2.99136 2.5303C4.11886 2.30256 5.26617 2.1917 6.41677 2.2003C6.61872 2.2003 6.78287 2.03616 6.78287 1.83334C6.78287 1.63139 6.61873 1.46724 6.41677 1.46724C5.21451 1.45865 4.0148 1.57466 2.8367 1.81357C2.6528 1.85224 2.5282 2.02411 2.54795 2.2106C2.56772 2.39708 2.72584 2.53888 2.9132 2.53888L2.91316 2.5389Z" fill="#42526E"/>
</g>
<defs>
<clipPath id="clip0_111_5886">
<rect width="22" height="22" fill="white"/>
</clipPath>
</defs>
</svg>
