<svg width="24" height="24" viewBox="0 0 24 24" fill="none" xmlns="http://www.w3.org/2000/svg">
<path d="M20.4495 19.0501L15.2502 13.8498C16.0498 12.7998 16.4998 11.4498 16.4998 9.99943C16.4998 6.39944 13.6002 3.49976 10.0002 3.49976C6.40015 3.49976 3.49951 6.40039 3.49951 10.0004C3.49951 13.6004 6.39919 16.5001 9.99919 16.5001C11.4495 16.5001 12.7489 16.0501 13.8495 15.2504L19.0498 20.4507C19.2495 20.6504 19.4998 20.7507 19.7501 20.7507C20.0005 20.7507 20.2498 20.6504 20.4505 20.4507C20.8499 20.0504 20.8499 19.4504 20.4495 19.0501L20.4495 19.0501ZM10.0002 14.5004C7.49983 14.5004 5.50015 12.5007 5.50015 10.0004C5.50015 7.50007 7.49983 5.5004 10.0002 5.5004C12.5005 5.5004 14.5002 7.50007 14.5002 10.0004C14.5002 12.4998 12.4995 14.5004 10.0002 14.5004Z" fill="#8492A6"/>
</svg>
