<svg width="22" height="22" viewBox="0 0 22 22" fill="none" xmlns="http://www.w3.org/2000/svg">
<path d="M20.4116 7.61773C20.0873 7.61773 19.824 7.86689 19.824 8.17381V11.5352C19.824 16.1408 15.8651 19.8878 10.9991 19.8878C6.13306 19.8878 2.17415 16.1408 2.17415 11.5352L2.17506 8.17381C2.17506 7.86689 1.91181 7.61773 1.58753 7.61773C1.26325 7.61773 1 7.86689 1 8.17381V11.5352C1 16.7539 5.48616 20.9999 11 20.9999C16.5138 20.9999 21 16.7539 21 11.5352L20.9991 8.17381C20.9991 7.86689 20.7367 7.61773 20.4116 7.61773Z" fill="white" stroke="white" stroke-width="1.13491"/>
<path d="M15.5003 7.50141C15.3518 7.50141 15.2033 7.55486 15.0885 7.66091L11.5869 10.9146L11.5869 1.55608C11.5869 1.24916 11.3237 1 10.9994 1C10.6751 1 10.4119 1.24916 10.4119 1.55608L10.4119 10.9146L6.91024 7.66091C6.67887 7.44537 6.30632 7.44882 6.07949 7.66781C5.85177 7.88679 5.85541 8.2394 6.08678 8.45408L10.5839 12.633L10.5875 12.6364C10.5967 12.6451 10.6067 12.6502 10.6158 12.658C10.6349 12.6735 10.654 12.6899 10.675 12.7028C10.6914 12.7132 10.7087 12.7209 10.726 12.7287C10.7424 12.7373 10.7579 12.7459 10.7752 12.7528C10.7961 12.7606 10.818 12.7658 10.8399 12.7718C10.8544 12.7761 10.869 12.7813 10.8845 12.7839C10.9601 12.7977 11.0375 12.7977 11.1131 12.7839C11.1295 12.7804 11.145 12.7753 11.1614 12.7709C11.1815 12.7658 11.2024 12.7606 11.2224 12.7528C11.2407 12.7459 11.2571 12.7365 11.2744 12.727C11.2908 12.7184 11.3072 12.7115 11.3226 12.702C11.3436 12.689 11.3618 12.6735 11.38 12.658C11.3901 12.6502 11.401 12.6442 11.4101 12.6356L15.9119 8.45424C16.1433 8.23871 16.1469 7.88695 15.9192 7.66796C15.8044 7.55675 15.6524 7.50141 15.5003 7.50141Z" fill="white" stroke="white" stroke-width="1.13491"/>
</svg>
